<?xml version="1.0" encoding="UTF-8"?>
<svg id="_レイヤー_1" data-name="レイヤー_1" xmlns="http://www.w3.org/2000/svg" version="1.1" viewBox="0 0 100 100">
  <!-- Generator: Adobe Illustrator 29.4.0, SVG Export Plug-In . SVG Version: 2.1.0 Build 152)  -->
  <defs>
    <style>
      .st0 {
        fill-rule: evenodd;
      }

      .st0, .st1 {
        fill: #600e0e;
      }
    </style>
  </defs>
  <g>
    <path class="st1" d="M58.13,47.53h-18.97v40.4h21.67v-40.4h-2.7ZM55.88,52.27c-.02-1.11.55-1.78,1.7-2.02-.03,1.27-.6,1.95-1.7,2.02ZM56.96,56.03c-1.12-.38-1.61-1.16-1.28-2.45,1.08.46,1.48,1.29,1.28,2.45ZM56.44,49.66c-.8.33-1.41.9-1.7,1.88-.42-.88-1.05-1.51-2.05-1.7,1.32-.88,2.58-1.01,3.76-.18ZM53.67,52.12c-1.09.09-1.75-.47-1.98-1.68,1.14.11,1.87.6,1.98,1.68ZM50,49.28c.42,0,.83.17,1.25.52-.42.35-.83.52-1.25.52h0c-.42,0-.83-.17-1.25-.52.42-.35.83-.52,1.25-.52ZM47.31,49.84c-1,.2-1.63.83-2.05,1.7-.29-.99-.91-1.55-1.7-1.88,1.18-.84,2.44-.7,3.76.18ZM48.3,50.44c-.23,1.2-.89,1.76-1.98,1.68.11-1.08.84-1.57,1.98-1.68ZM43.04,56.03c-.2-1.16.21-1.99,1.28-2.45.33,1.3-.17,2.07-1.28,2.45ZM44.12,52.27c-1.1-.07-1.67-.75-1.7-2.02,1.16.24,1.73.91,1.7,2.02ZM41.87,51.89c.03-.09.07-.17.11-.26.19.7.7,1.13,1.5,1.3-1.1.69-1.5,1.65-1.37,2.96-.09-.27-.17-.53-.23-.79v-3.2ZM41.98,83.44c-.04-.09-.08-.17-.11-.26v-3.2c.07-.26.15-.53.23-.79-.13,1.31.27,2.27,1.37,2.96-.8.17-1.31.59-1.5,1.3ZM43.04,79.04c1.12.38,1.61,1.16,1.28,2.45-1.08-.46-1.48-1.29-1.28-2.45ZM44.12,82.8c.02,1.11-.55,1.78-1.7,2.02.03-1.27.6-1.95,1.7-2.02ZM43.56,85.4c.8-.33,1.41-.9,1.7-1.88.42.88,1.05,1.51,2.05,1.7-1.32.88-2.58,1.01-3.76.18ZM46.33,82.95c1.09-.09,1.75.47,1.98,1.68-1.14-.11-1.87-.6-1.98-1.68ZM50,85.79c-.42,0-.83-.17-1.25-.52.42-.35.83-.52,1.25-.52h0c.42,0,.83.17,1.25.52-.42.35-.83.52-1.25.52ZM52.69,85.23c1-.2,1.63-.83,2.05-1.7.29.99.91,1.55,1.7,1.88-1.18.84-2.44.7-3.76-.18ZM51.7,84.63c.23-1.2.89-1.76,1.98-1.68-.11,1.08-.84,1.57-1.98,1.68ZM56.96,79.04c.2,1.16-.21,1.99-1.28,2.45-.33-1.3.17-2.07,1.28-2.45ZM55.88,82.8c1.1.07,1.67.75,1.7,2.02-1.16-.24-1.73-.91-1.7-2.02ZM58.13,83.18c-.03.09-.07.17-.11.26-.19-.7-.7-1.13-1.5-1.3,1.1-.69,1.5-1.65,1.37-2.96.09.27.17.53.23.79v3.2ZM58.13,76.28c-.9.38-1.33,1.04-1.5,1.85-1.55.81-2.25,2.12-2.02,3.95-1.75-.27-2.96.33-3.63,1.8-.33-.15-.66-.23-.99-.23s-.66.08-.99.23c-.66-1.47-1.87-2.07-3.63-1.8.23-1.84-.47-3.14-2.02-3.95-.17-.81-.6-1.47-1.5-1.85v-17.5c.9-.38,1.33-1.04,1.5-1.85,1.55-.81,2.25-2.12,2.02-3.95,1.75.27,2.96-.33,3.63-1.8.33.15.66.23.99.23s.66-.08.99-.23c.66,1.47,1.87,2.07,3.63,1.8-.23,1.84.47,3.14,2.02,3.95.17.81.6,1.47,1.5,1.85v17.5ZM58.13,55.09c-.07.26-.15.53-.23.79.13-1.31-.27-2.27-1.37-2.96.8-.17,1.31-.59,1.5-1.3.04.09.08.17.11.26v3.2Z"/>
    <path class="st1" d="M37.84,47.53h-8.08v34.52l1.04.65,7.04,4.4,1.32.83v-40.4h-1.32ZM36.78,52.11c-.01-1.07.26-1.71.8-1.92-.02,1.24-.28,1.89-.8,1.92ZM37.28,55.81c-.52-.43-.75-1.2-.6-2.44.5.49.69,1.32.6,2.44ZM37.04,49.6c-.37.3-.66.84-.79,1.78-.19-.85-.48-1.47-.93-1.67.59-.82,1.17-.94,1.72-.12ZM35.76,51.9c-.49.05-.78-.49-.88-1.63.51.12.84.6.88,1.63ZM34.14,49.16c.18,0,.36.17.54.5-.18.32-.36.48-.54.47h0c-.18,0-.36-.18-.53-.5.18-.31.36-.47.53-.47ZM33,49.65c-.42.16-.68.73-.85,1.51-.12-.9-.37-1.42-.69-1.72.47-.74.99-.61,1.53.21ZM33.42,50.21c-.1,1.1-.37,1.6-.83,1.49.04-.98.35-1.42.83-1.49ZM31.26,55.11c-.08-1.04.08-1.77.51-2.15.13,1.18-.07,1.86-.51,2.15ZM31.69,51.78c-.44-.09-.66-.71-.68-1.84.46.23.69.84.68,1.84ZM30.8,51.39c.01-.08.03-.15.04-.23.08.63.28,1.02.59,1.19-.44.58-.59,1.42-.54,2.59-.03-.24-.07-.48-.09-.71v-2.84ZM30.84,78.75c-.02-.08-.03-.17-.04-.25v-2.84c.03-.22.06-.44.09-.66-.05,1.14.11,2.07.54,2.92-.32-.02-.52.24-.59.83ZM31.26,75.06c.45.57.64,1.37.51,2.46-.43-.64-.59-1.47-.51-2.46ZM31.69,78.65c0,1-.22,1.47-.68,1.42.01-1.12.24-1.6.68-1.42ZM31.47,80.86c.32-.1.57-.47.69-1.3.17.89.43,1.62.85,2.04-.55.48-1.06.29-1.53-.74ZM32.59,79.29c.45.17.73.84.83,2.01-.48-.37-.78-1-.83-2.01ZM34.14,82.79c-.18-.11-.36-.37-.53-.8.18-.22.36-.28.53-.17h0c.18.1.36.37.54.81-.18.22-.36.27-.54.16ZM35.32,82.97c.45.08.74-.36.93-1.09.13,1.02.42,1.74.79,2.27-.55.48-1.13,0-1.72-1.18ZM34.88,82.14c.1-1.08.4-1.44.88-1.09-.05,1-.38,1.28-.88,1.09ZM37.28,78.09c.09,1.18-.1,1.89-.6,2.07-.15-1.33.08-1.96.6-2.07ZM36.78,81.48c.52.36.79,1.17.8,2.42-.55-.55-.81-1.35-.8-2.42ZM37.84,82.44c-.02.08-.03.15-.05.23-.09-.74-.34-1.29-.71-1.66.52-.39.71-1.23.65-2.55.04.29.08.56.11.84v3.14ZM37.84,75.67c-.43.18-.63.72-.71,1.47-.72.43-1.04,1.52-.94,3.33-.79-.69-1.33-.42-1.62.8-.14-.23-.29-.38-.43-.46s-.28-.09-.42-.03c-.28-1.52-.79-2.35-1.51-2.49.09-1.61-.19-2.94-.81-3.98-.07-.76-.24-1.43-.59-1.93v-14.88c.35-.29.52-.85.59-1.57.62-.66.91-1.8.81-3.47.72.3,1.23-.21,1.51-1.55.14.15.28.23.42.24s.29-.06.43-.19c.29,1.4.83,2.01,1.62,1.81-.11,1.75.22,3.04.94,3.91.08.8.28,1.47.71,1.91v17.09ZM37.84,54.95c-.03.25-.07.51-.11.77.06-1.28-.13-2.24-.65-2.95.38-.14.62-.53.71-1.22.02.08.04.17.05.26v3.14Z"/>
    <path class="st1" d="M60.84,47.53v40.4s9.4-5.88,9.4-5.88v-34.52s-1.04,0-1.04,0h-7.04s-1.32,0-1.32,0ZM62.42,50.19c.55.21.81.85.8,1.92-.52-.04-.79-.68-.8-1.92ZM63.32,53.37c.15,1.24-.08,2.01-.6,2.44-.09-1.12.1-1.95.6-2.44ZM64.68,49.72c-.45.2-.74.81-.93,1.67-.13-.94-.42-1.48-.79-1.78.55-.82,1.13-.71,1.72.12ZM65.12,50.27c-.1,1.14-.4,1.69-.88,1.63.05-1.03.38-1.51.88-1.63ZM66.39,49.63c-.18.33-.36.5-.53.5h0c-.18,0-.36-.15-.54-.47.18-.33.36-.5.54-.5s.36.15.53.47ZM68.53,49.44c-.32.3-.57.82-.69,1.72-.17-.79-.43-1.35-.85-1.51.55-.82,1.06-.95,1.53-.21ZM67.41,51.71c-.45.11-.73-.39-.83-1.49.48.08.78.51.83,1.49ZM68.23,52.97c.43.38.59,1.11.51,2.15-.45-.29-.64-.97-.51-2.15ZM68.99,49.95c-.01,1.13-.24,1.74-.68,1.84,0-1,.22-1.61.68-1.84ZM69.2,54.22c-.03.23-.06.47-.09.71.05-1.17-.11-2.01-.54-2.59.32-.17.52-.56.59-1.19.02.07.03.15.04.23v2.84ZM68.56,77.92c.44-.85.59-1.79.54-2.92.03.22.07.44.09.66v2.84c-.01.09-.03.17-.04.25-.08-.58-.28-.85-.59-.83ZM68.23,77.52c-.13-1.1.07-1.9.51-2.46.08.99-.08,1.82-.51,2.46ZM68.99,80.07c-.46.06-.69-.42-.68-1.42.44-.18.66.29.68,1.42ZM67,81.6c.42-.42.68-1.15.85-2.04.12.82.37,1.19.69,1.3-.47,1.03-.99,1.22-1.53.74ZM66.58,81.29c.1-1.17.37-1.83.83-2.01-.04,1.01-.35,1.63-.83,2.01ZM65.32,82.63c.18-.43.36-.7.54-.81h0c.18-.1.36-.05.53.17-.18.42-.36.69-.53.8s-.36.05-.54-.16ZM62.96,84.15c.37-.54.66-1.25.79-2.27.19.73.48,1.17.93,1.09-.59,1.19-1.17,1.67-1.72,1.18ZM64.24,81.06c.49-.35.78.01.88,1.09-.51.19-.84-.08-.88-1.09ZM63.32,80.16c-.5-.18-.69-.89-.6-2.07.52.1.75.73.6,2.07ZM62.42,83.9c.02-1.25.28-2.06.8-2.42.01,1.07-.26,1.87-.8,2.42ZM62.16,79.3c.03-.27.07-.55.11-.84-.06,1.32.13,2.16.65,2.55-.38.37-.62.92-.71,1.66-.02-.07-.04-.15-.05-.23v-3.14ZM62.16,58.58c.43-.44.63-1.11.71-1.91.72-.88,1.04-2.16.94-3.91.79.2,1.33-.41,1.62-1.81.14.14.29.2.43.19s.28-.09.42-.24c.28,1.34.79,1.86,1.51,1.55-.09,1.67.19,2.82.81,3.47.07.72.24,1.28.59,1.57v14.88c-.35.51-.52,1.18-.59,1.93-.62,1.04-.91,2.36-.81,3.98-.72.14-1.23.97-1.51,2.49-.14-.06-.28-.05-.42.03s-.29.23-.43.46c-.29-1.22-.83-1.49-1.62-.8.11-1.82-.22-2.9-.94-3.33-.08-.75-.28-1.29-.71-1.47v-17.09ZM62.16,51.81c.02-.09.03-.17.05-.26.09.68.34,1.08.71,1.22-.52.71-.71,1.67-.65,2.95-.04-.26-.08-.51-.11-.77v-3.14Z"/>
    <polyline class="st1" points="60.84 91.08 70.93 84.77 70.93 81.62 60.84 87.92"/>
    <polyline class="st1" points="39.16 87.92 29.07 81.62 29.07 84.77 39.16 91.08"/>
    <polygon class="st1" points="29.07 81.62 29.76 80.93 29.76 82.05 29.07 81.62"/>
    <polygon class="st1" points="70.93 81.62 70.24 80.93 70.24 82.05 70.93 81.62"/>
    <rect class="st1" x="39.16" y="87.92" width="21.67" height="3.15"/>
    <rect class="st1" x="27.84" y="44.37" width="44.31" height="3.15"/>
    <path class="st1" d="M70.24,44.37c0-8.9-5.58-16.12-12.47-16.12h-15.53c-6.89,0-12.47,7.22-12.47,16.12h40.48ZM31.91,42.17h-.08c-.25,0-.43-.22-.39-.46l.5-2.86c.03-.19.2-.33.39-.33h0c.24,0,.43.21.39.45l-.42,2.86c-.03.19-.2.34-.39.34ZM34.28,42.17h-.09c-.23,0-.42-.2-.39-.44l.29-2.86c.02-.2.19-.36.39-.36h0c.23,0,.41.2.4.43l-.21,2.86c-.02.21-.19.37-.4.37ZM36.64,42.17h-.09c-.22,0-.4-.18-.4-.41l.08-2.86c0-.21.18-.39.4-.39h.01c.22,0,.4.18.4.4v2.86c0,.22-.18.4-.4.4ZM45.05,42.17h-1.28c-.26,0-.44-.24-.39-.49l.67-2.86c.04-.18.2-.31.39-.31h1.07c.24,0,.43.22.39.46l-.46,2.86c-.03.19-.2.33-.39.33ZM48.96,41.76l.11-2.86c0-.21.18-.38.4-.38h1.09c.21,0,.39.17.4.38l.11,2.86c0,.22-.17.41-.4.41h-1.3c-.22,0-.4-.19-.4-.41ZM54.56,41.83l-.46-2.86c-.04-.24.15-.46.39-.46h1.07c.18,0,.34.13.39.31l.67,2.86c.06.25-.13.49-.39.49h-1.28c-.19,0-.36-.14-.39-.33ZM62.96,41.77v-2.86c0-.22.18-.4.4-.4h.01c.21,0,.39.17.4.39l.08,2.86c0,.22-.17.41-.4.41h-.09c-.22,0-.4-.18-.4-.4ZM65.32,41.8l-.21-2.86c-.02-.23.17-.43.4-.43h0c.2,0,.37.15.39.36l.29,2.86c.02.23-.16.44-.39.44h-.09c-.21,0-.38-.16-.4-.37ZM67.69,41.83l-.42-2.86c-.04-.24.15-.45.39-.45h0c.19,0,.36.14.39.33l.5,2.86c.04.24-.14.46-.39.46h-.08c-.2,0-.36-.14-.39-.34Z"/>
    <path class="st1" d="M59.29,23.35c-3.84-2.05-7.07-4.01-7.2-5.69h-.06c.28,0,.5-.22.5-.5v-.15c0-.28-.22-.5-.5-.5-.14-.44-.56-.76-1.05-.76h-2c-.49,0-.91.32-1.05.76-.28,0-.5.23-.5.5v.15c0,.28.22.5.5.5h-.06c-.12,1.68-3.35,3.64-7.2,5.69s-2.78,5.85-1.03,7.53h20.64c1.76-1.68,2.82-5.48-1.03-7.53Z"/>
    <rect class="st1" x="49.02" y="13.76" width="2" height="2"/>
    <circle class="st1" cx="50" cy="13.48" r="2.05"/>
  </g>
  <path class="st0" d="M32.85,35.14c-.5-.63.79-2.04.22-2.1l-.19-.24,1.27-2.53c.21-.42.64-.89,1.31-1.42l1.01-.79c-.37-.47-.71-.73-.99-.75.33-.26.52-.54.57-.83.21-.42.4-1.21.56-2.36-.16,1.16-.35,1.94-.56,2.36l-.5.4c.34-.26.47-.44.41-.52-.06-.07.07-.24.41-.51.09-.58-.08-1.48-.5-2.68-.08.57-.04,1.05.13,1.43.17.39.21.86.14,1.43-.17.13-.22.23-.16.31.06.08,0,.19-.16.32-.17.13-.27.35-.32.63-.12-.16-.35-.11-.69.16l-.26.2-.19,1.3-.44-.04c-.29-.02-.46.11-.5.4-.42.84-.8,1.4-1.14,1.66.08-.58.26-1.22.51-1.93.25-.71.24-1.59-.05-2.65-.07-1.48-.42-3.12-1.03-4.94-.67-1.53-1.67-3.31-2.99-5.33-1.32-2.03-3.24-4.12-5.71-6.27-.67-.5-1.37-.71-2.12-.63-.58-.05-1.05.31-1.38,1.09-.34.78-.43,2.13-.27,4.05.25.32.39.85.43,1.59,0,1.02-.2,2.33-.59,3.91-.25.71-.42,1.36-.51,1.94-.17,1.16.08,2,.74,2.49.25.32.36.63.31.91-.08.58-.29,1-.63,1.26-.63.24-1.22.7-1.76,1.38-.92,1.24-1.28,2.67-1.09,4.31l-.12.87c-.09.58.22.98.93,1.19l-.07.44c-.04.29.21.61.75.95-.05.29,0,.52.12.67.25.31.52.49.81.51-.17.13-.13.36.12.67.5.64,1.04.98,1.63,1.03l.18.24c-.12-.16.23-.05,1.06.32.25.32.52.49.81.52.59.05,1.11.03,1.57-.08l1.26-.99c.34-.26.79-.55,1.35-.87.56-.32,1.09-.68,1.6-1.07-.08.59-.29,1.01-.63,1.27l-1.01.79-1,.79c-.34.27-.53.54-.57.83-.21.42-.2.61.03.56.22-.06.42-.15.59-.28s.56-.5,1.17-1.1c.61-.61.99-.98,1.16-1.11l1-.79-.06.43,2.14-2.22,1.91-.56h0Z"/>
</svg>